<svg width="11" height="11" viewBox="0 0 11 11" fill="none" xmlns="http://www.w3.org/2000/svg">
<rect x="1.25626" y="1.4379" width="9.09148" height="9.09148" rx="4.54574" stroke="#222222" stroke-width="0.908523"/>
<path d="M7.09361 4.83327C7.15841 4.76866 7.24464 4.73294 7.33411 4.73365C7.42358 4.73436 7.50929 4.77144 7.57315 4.83707C7.63701 4.9027 7.67403 4.99175 7.67639 5.08542C7.67876 5.17909 7.64628 5.27006 7.58582 5.33913L5.75035 7.74316C5.71879 7.77876 5.6807 7.80733 5.63835 7.82716C5.59601 7.847 5.55028 7.85768 5.5039 7.85858C5.45752 7.85948 5.41144 7.85058 5.36842 7.8324C5.32541 7.81422 5.28633 7.78715 5.25353 7.7528L4.03632 6.47803C4.00243 6.44495 3.97524 6.40506 3.95638 6.36074C3.93752 6.31642 3.92738 6.26857 3.92657 6.22006C3.92575 6.17154 3.93427 6.12335 3.95162 6.07836C3.96898 6.03337 3.9948 5.9925 4.02757 5.95819C4.06033 5.92388 4.09935 5.89683 4.14231 5.87865C4.18527 5.86048 4.23129 5.85156 4.27761 5.85241C4.32394 5.85327 4.36963 5.86389 4.41195 5.88364C4.45427 5.90338 4.49236 5.93186 4.52394 5.96736L5.48722 6.9757L7.08486 4.84387L7.09361 4.83327Z" fill="#222222"/>
</svg>
