<svg width="12" height="12" viewBox="0 0 12 12" fill="none" xmlns="http://www.w3.org/2000/svg">
<mask id="path-1-inside-1_626_16383" fill="white">
<path d="M11.9942 6.35363C11.9667 9.49996 9.39388 12.0269 6.24679 11.9998L5.64637 11.9944C2.49927 11.9661 -0.0268824 9.39311 0.000215992 6.24718L0.00524855 5.64637C0.0333148 2.50005 2.6065 -0.0268825 5.75282 0.000215927L6.35344 0.00582916C9.49976 0.0335083 12.0267 2.60689 12.0015 5.75302L11.9955 6.35383"/>
</mask>
<path d="M6.24679 11.9998L6.23776 12.9997L6.23818 12.9997L6.24679 11.9998ZM5.64637 11.9944L5.65539 10.9944H5.65534L5.64637 11.9944ZM0.000215992 6.24718L1.00018 6.25579L1.00018 6.25555L0.000215992 6.24718ZM0.00524855 5.64637L-0.994712 5.63745L-0.994716 5.63799L0.00524855 5.64637ZM5.75282 0.000215927L5.76217 -0.999741L5.76144 -0.999747L5.75282 0.000215927ZM6.35344 0.00582916L6.3441 1.00579L6.34464 1.00579L6.35344 0.00582916ZM12.0015 5.75302L13.0015 5.763L13.0015 5.76102L12.0015 5.75302ZM10.9942 6.3449C10.9716 8.93854 8.85074 11.0222 6.2554 10.9998L6.23818 12.9997C9.93703 13.0316 12.9618 10.0614 12.9941 6.36237L10.9942 6.3449ZM6.25582 10.9998L5.65539 10.9944L5.63734 12.9943L6.23776 12.9997L6.25582 10.9998ZM5.65534 10.9944C3.06069 10.9711 0.977834 8.84992 1.00018 6.25579L-0.999747 6.23856C-1.0316 9.9363 1.93785 12.9611 5.63739 12.9943L5.65534 10.9944ZM1.00018 6.25555L1.00521 5.65474L-0.994716 5.63799L-0.999749 6.2388L1.00018 6.25555ZM1.00521 5.65529C1.02835 3.06146 3.14968 0.977833 5.74421 1.00018L5.76144 -0.999747C2.06333 -1.0316 -0.961717 1.93863 -0.994712 5.63745L1.00521 5.65529ZM5.74348 1.00017L6.3441 1.00579L6.36279 -0.994127L5.76217 -0.99974L5.74348 1.00017ZM6.34464 1.00579C8.93821 1.02861 11.0223 3.15004 11.0016 5.74502L13.0015 5.76102C13.0311 2.06374 10.0613 -0.96159 6.36224 -0.994132L6.34464 1.00579ZM11.0016 5.74303L10.9956 6.34384L12.9955 6.36381L13.0015 5.763L11.0016 5.74303Z" fill="#FFCA02" mask="url(#path-1-inside-1_626_16383)"/>
<path d="M10.9986 6.54853C10.9953 6.66933 10.8578 6.78473 10.6161 6.86938C10.3744 6.95402 10.0483 7.001 9.70959 6.99998L2.26551 6.97633C2.09777 6.97579 1.93197 6.96348 1.77758 6.94008C1.62319 6.91669 1.48324 6.88268 1.36572 6.84C1.2482 6.79731 1.15542 6.74679 1.09268 6.69131C1.02994 6.63584 0.998466 6.5765 1.00006 6.51669L1.00161 6.45147C1.00309 6.39166 1.03759 6.33253 1.10315 6.27747C1.16871 6.22241 1.26404 6.17249 1.3837 6.13057C1.50336 6.08865 1.645 6.05555 1.80054 6.03314C1.95609 6.01074 2.12248 5.99949 2.29022 6.00002L9.7343 6.02361C9.90205 6.02414 10.0679 6.03646 10.2223 6.05985C10.3767 6.08324 10.5166 6.11725 10.6342 6.15993C10.7517 6.20261 10.8445 6.25314 10.9072 6.30861C10.97 6.36409 11.0015 6.42343 10.9999 6.48325L10.9986 6.54853Z" fill="#FFCA02"/>
</svg>
