<svg width="12" height="12" viewBox="0 0 12 12" fill="none" xmlns="http://www.w3.org/2000/svg">
<path d="M8.70497 10.7816L8.662 10.4782C8.43206 10.4279 8.24286 10.3571 8.0944 10.2659C7.94595 10.1746 7.80576 10.0616 7.67385 9.92683L7.37613 10.0601C7.32086 10.0883 7.26438 10.0955 7.2067 10.0819C7.1486 10.0682 7.10342 10.035 7.07115 9.98233L6.97554 9.81643C6.9352 9.76415 6.92068 9.70664 6.93197 9.6439C6.94327 9.58117 6.97413 9.52848 7.02456 9.48585L7.26781 9.28075C7.19318 9.06036 7.15587 8.85285 7.15587 8.6582C7.15587 8.46355 7.19318 8.25604 7.26781 8.03565L7.02456 7.83055C6.97413 7.78792 6.94327 7.73544 6.93197 7.6731C6.92068 7.61036 6.9352 7.55265 6.97554 7.49997L7.07115 7.33408C7.10342 7.2818 7.1486 7.24882 7.2067 7.23515C7.26479 7.22147 7.32126 7.22851 7.37613 7.25626L7.67385 7.38958C7.80576 7.25525 7.94595 7.14184 8.0944 7.04935C8.24286 6.95685 8.43206 6.88546 8.662 6.83519L8.70436 6.53116C8.71687 6.46842 8.7439 6.41654 8.78545 6.37552C8.827 6.3341 8.88045 6.31339 8.94581 6.31339H9.11342C9.17837 6.31339 9.23162 6.3341 9.27317 6.37552C9.31473 6.41654 9.34175 6.46842 9.35426 6.53116L9.39662 6.83519C9.62656 6.88546 9.81576 6.95624 9.96422 7.04754C10.1131 7.13883 10.2535 7.25184 10.3854 7.38656L10.6831 7.25264C10.738 7.22489 10.7944 7.21785 10.8525 7.23153C10.9102 7.2448 10.9554 7.27778 10.9881 7.33046L11.0831 7.49635C11.1234 7.54903 11.1381 7.60674 11.1273 7.66948C11.116 7.73222 11.0851 7.7847 11.0347 7.82693L10.7914 8.03203C10.8656 8.25282 10.9028 8.46034 10.9028 8.65458C10.9028 8.84883 10.8656 9.05634 10.7914 9.27713L11.0347 9.48223C11.0851 9.52487 11.116 9.57755 11.1273 9.64029C11.1381 9.70302 11.1234 9.76073 11.0831 9.81342L10.9881 9.97931C10.9554 10.0316 10.9108 10.0646 10.8543 10.0782C10.7979 10.0919 10.742 10.0847 10.6867 10.0565L10.3854 9.92683C10.2535 10.0616 10.1131 10.1746 9.96422 10.2659C9.81536 10.3571 9.62636 10.4279 9.39722 10.4782L9.35426 10.7816C9.34175 10.8444 9.31473 10.8966 9.27317 10.9385C9.23162 10.9795 9.17837 11 9.11342 11H8.94581C8.88045 11 8.827 10.9793 8.78545 10.9379C8.7439 10.8964 8.71707 10.8444 8.70497 10.7816ZM9.02931 9.95578C9.38552 9.95578 9.69192 9.8281 9.94849 9.57272C10.2047 9.31695 10.3327 9.0115 10.3327 8.65639C10.3327 8.30168 10.2045 7.99644 9.94788 7.74066C9.69171 7.48489 9.38552 7.357 9.02931 7.357C8.6735 7.357 8.36731 7.48489 8.11074 7.74066C7.85417 7.99644 7.72589 8.30168 7.72589 8.65639C7.72589 9.0115 7.85417 9.31695 8.11074 9.57272C8.36731 9.8281 8.6735 9.95578 9.02931 9.95578ZM5.23583 6.29046C5.11077 6.29046 5.00185 6.24421 4.90906 6.15172C4.81628 6.05922 4.76989 5.95084 4.76989 5.82657C4.76989 5.7019 4.81628 5.59331 4.90906 5.50081C5.00185 5.40832 5.11077 5.36207 5.23583 5.36207C5.36088 5.36207 5.46981 5.40832 5.56259 5.50081C5.65537 5.59331 5.70177 5.7019 5.70177 5.82657C5.70177 5.95124 5.65537 6.05982 5.56259 6.15232C5.46981 6.24482 5.36088 6.29046 5.23583 6.29046ZM2.21024 10.0487V1.97424C2.21024 1.70479 2.30544 1.47496 2.49585 1.28473C2.68626 1.09491 2.91681 1 3.1875 1H6.07392C6.28248 1 6.46724 1.05731 6.6282 1.17192C6.78916 1.28614 6.90575 1.42991 6.97796 1.60325H7.88927C8.15955 1.60325 8.3901 1.69816 8.58092 1.88798C8.77133 2.0778 8.86653 2.30764 8.86653 2.57749V4.80527C8.86653 4.89093 8.83769 4.96252 8.78 5.02003C8.72191 5.07794 8.6499 5.10689 8.56398 5.10689C8.47805 5.10689 8.40604 5.07794 8.34795 5.02003C8.29026 4.96252 8.26142 4.89093 8.26142 4.80527V2.57749C8.26142 2.4693 8.22652 2.38043 8.15673 2.31085C8.08694 2.24128 7.99779 2.20649 7.88927 2.20649H7.05118V5.71135C6.93701 5.79379 6.83253 5.87221 6.73773 5.94661C6.64252 6.02182 6.5453 6.10989 6.44606 6.21083V1.97424C6.44606 1.86606 6.41117 1.77718 6.34138 1.70761C6.27159 1.63803 6.18243 1.60325 6.07392 1.60325H3.1875C3.07898 1.60325 2.98983 1.63803 2.92004 1.70761C2.85025 1.77718 2.81535 1.86606 2.81535 1.97424V10.0487H5.75502C5.80988 10.1717 5.86011 10.2777 5.90569 10.3666C5.95087 10.4555 6.00695 10.5506 6.07392 10.6519H1.30256C1.21663 10.6519 1.14462 10.6232 1.08653 10.5657C1.02884 10.5078 1 10.436 1 10.3503C1 10.2646 1.02884 10.1929 1.08653 10.1349C1.14462 10.0774 1.21663 10.0487 1.30256 10.0487H2.21024Z" fill="#888888"/>
<path d="M2.81535 10.0487V1.97424C2.81535 1.86606 2.85025 1.77718 2.92004 1.70761C2.98983 1.63803 3.07898 1.60325 3.1875 1.60325H6.07391C6.18243 1.60325 6.27159 1.63803 6.34138 1.70761C6.41117 1.77718 6.44606 1.86606 6.44606 1.97424V6.21083C6.5453 6.10989 6.64252 6.02182 6.73773 5.94661C6.83253 5.87221 6.93701 5.79379 7.05118 5.71135V2.20649H7.88927C7.99779 2.20649 8.08694 2.24128 8.15673 2.31085C8.22652 2.38043 8.26142 2.4693 8.26142 2.57749V4.80527C8.26142 4.89093 8.29026 4.96252 8.34795 5.02003C8.40604 5.07794 8.47805 5.1069 8.56398 5.1069C8.6499 5.1069 8.72191 5.07794 8.78 5.02003C8.83769 4.96252 8.86653 4.89093 8.86653 4.80527V2.57749C8.86653 2.30764 8.77133 2.0778 8.58092 1.88798C8.3901 1.69816 8.15956 1.60325 7.88927 1.60325H6.97796C6.90575 1.42991 6.78916 1.28614 6.6282 1.17192C6.46724 1.05731 6.28248 1 6.07391 1H3.1875C2.91681 1 2.68626 1.09491 2.49585 1.28473C2.30544 1.47496 2.21024 1.70479 2.21024 1.97424V10.0487H1.30256C1.21663 10.0487 1.14462 10.0774 1.08653 10.1349C1.02884 10.1929 1 10.2646 1 10.3503C1 10.436 1.02884 10.5078 1.08653 10.5657C1.14462 10.6232 1.21663 10.6519 1.30256 10.6519H6.07391C6.00695 10.5506 5.95087 10.4555 5.90569 10.3666C5.86011 10.2777 5.80988 10.1717 5.75502 10.0487H2.81535ZM2.81535 10.0487V1.60325M8.70497 10.7816L8.662 10.4782C8.43206 10.4279 8.24286 10.3571 8.0944 10.2659C7.94595 10.1746 7.80576 10.0616 7.67385 9.92683L7.37613 10.0601C7.32086 10.0883 7.26438 10.0955 7.2067 10.0819C7.1486 10.0682 7.10342 10.035 7.07115 9.98233L6.97554 9.81643C6.9352 9.76415 6.92068 9.70664 6.93197 9.64391C6.94327 9.58117 6.97413 9.52848 7.02456 9.48585L7.26781 9.28075C7.19318 9.06036 7.15587 8.85285 7.15587 8.6582C7.15587 8.46355 7.19318 8.25604 7.26781 8.03565L7.02456 7.83055C6.97413 7.78792 6.94327 7.73544 6.93197 7.6731C6.92068 7.61036 6.9352 7.55265 6.97554 7.49997L7.07115 7.33408C7.10342 7.2818 7.1486 7.24882 7.2067 7.23515C7.26479 7.22147 7.32126 7.22851 7.37613 7.25626L7.67385 7.38958C7.80576 7.25525 7.94595 7.14184 8.0944 7.04935C8.24286 6.95685 8.43206 6.88546 8.662 6.83519L8.70436 6.53116C8.71687 6.46842 8.7439 6.41654 8.78545 6.37552C8.827 6.3341 8.88045 6.31339 8.94581 6.31339H9.11342C9.17837 6.31339 9.23162 6.3341 9.27317 6.37552C9.31473 6.41654 9.34175 6.46842 9.35426 6.53116L9.39662 6.83519C9.62656 6.88546 9.81576 6.95624 9.96422 7.04754C10.1131 7.13883 10.2535 7.25184 10.3854 7.38656L10.6831 7.25264C10.738 7.22489 10.7944 7.21785 10.8525 7.23153C10.9102 7.2448 10.9554 7.27778 10.9881 7.33046L11.0831 7.49635C11.1234 7.54903 11.1381 7.60674 11.1273 7.66948C11.116 7.73222 11.0851 7.7847 11.0347 7.82693L10.7914 8.03203C10.8656 8.25282 10.9028 8.46034 10.9028 8.65458C10.9028 8.84883 10.8656 9.05634 10.7914 9.27713L11.0347 9.48224C11.0851 9.52486 11.116 9.57755 11.1273 9.64029C11.1381 9.70302 11.1234 9.76073 11.0831 9.81342L10.9881 9.97931C10.9554 10.0316 10.9108 10.0646 10.8543 10.0782C10.7979 10.0919 10.742 10.0847 10.6867 10.0565L10.3854 9.92683C10.2535 10.0616 10.1131 10.1746 9.96422 10.2659C9.81536 10.3571 9.62636 10.4279 9.39722 10.4782L9.35426 10.7816C9.34175 10.8444 9.31473 10.8966 9.27317 10.9385C9.23162 10.9795 9.17837 11 9.11342 11H8.94581C8.88045 11 8.827 10.9793 8.78545 10.9379C8.7439 10.8964 8.71707 10.8444 8.70497 10.7816ZM9.02931 9.95578C9.38552 9.95578 9.69192 9.8281 9.94849 9.57272C10.2047 9.31695 10.3327 9.0115 10.3327 8.65639C10.3327 8.30168 10.2045 7.99644 9.94788 7.74067C9.69171 7.48489 9.38552 7.357 9.02931 7.357C8.6735 7.357 8.36731 7.48489 8.11074 7.74067C7.85417 7.99644 7.72589 8.30168 7.72589 8.65639C7.72589 9.0115 7.85417 9.31695 8.11074 9.57272C8.36731 9.8281 8.6735 9.95578 9.02931 9.95578ZM5.23583 6.29046C5.11077 6.29046 5.00185 6.24421 4.90906 6.15172C4.81628 6.05922 4.76989 5.95084 4.76989 5.82657C4.76989 5.7019 4.81628 5.59331 4.90906 5.50081C5.00185 5.40832 5.11077 5.36207 5.23583 5.36207C5.36088 5.36207 5.46981 5.40832 5.56259 5.50081C5.65537 5.59331 5.70177 5.7019 5.70177 5.82657C5.70177 5.95124 5.65537 6.05982 5.56259 6.15232C5.46981 6.24482 5.36088 6.29046 5.23583 6.29046Z" stroke="#888888" stroke-width="0.2"/>
</svg>
