<svg width="15" height="15" viewBox="0 0 15 15" fill="none" xmlns="http://www.w3.org/2000/svg">
<rect x="0.75" y="0.75" width="13.0364" height="13.0364" rx="6.51818" fill="#48BB01"/>
<rect x="0.75" y="0.75" width="13.0364" height="13.0364" rx="6.51818" stroke="#48BB01" stroke-width="1.5"/>
<path d="M9.14579 5.596C9.23999 5.50208 9.36534 5.45016 9.4954 5.45119C9.62546 5.45222 9.75004 5.50612 9.84287 5.60152C9.9357 5.69693 9.98952 5.82636 9.99295 5.96253C9.99639 6.09869 9.94919 6.23093 9.8613 6.33133L7.19319 9.82592C7.14731 9.87767 7.09194 9.9192 7.03038 9.94803C6.96883 9.97686 6.90235 9.99239 6.83493 9.9937C6.76752 9.995 6.70054 9.98206 6.63801 9.95564C6.57547 9.92922 6.51867 9.88986 6.47099 9.83992L4.70162 7.98688C4.65234 7.9388 4.61282 7.88081 4.58541 7.81638C4.558 7.75195 4.54326 7.6824 4.54207 7.61188C4.54088 7.54135 4.55327 7.4713 4.57849 7.4059C4.60372 7.3405 4.64126 7.28109 4.68889 7.23121C4.73651 7.18134 4.79324 7.14202 4.85569 7.1156C4.91813 7.08919 4.98502 7.07621 5.05236 7.07746C5.1197 7.0787 5.18611 7.09414 5.24763 7.12284C5.30915 7.15155 5.36452 7.19294 5.41044 7.24455L6.81069 8.71031L9.13309 5.61141L9.14579 5.596Z" fill="white" stroke="white" stroke-width="0.8"/>
</svg>
