<svg width="64" height="64" viewBox="0 0 64 64" fill="none" xmlns="http://www.w3.org/2000/svg">
<circle cx="32" cy="32" r="30.5" stroke="white" stroke-width="3"/>
<path fill-rule="evenodd" clip-rule="evenodd" d="M42.6074 28.7897C43.5393 30.883 47.3029 30.9946 48.1429 28.6432C50.6957 30.3876 52.3363 30.0561 52.3199 33.9043H42.6468C42.3695 35.223 41.8716 36.478 41.1768 37.6094L45.7705 42.9264L42.6041 46L38.1745 40.8261C36.735 41.8432 35.0835 42.4709 33.3638 42.6544C31.6441 42.8379 29.9082 42.5718 28.3074 41.8791C26.7065 41.1864 25.2891 40.0882 24.1786 38.68C23.0681 37.2719 22.2981 35.5965 21.9356 33.7996H12C12.2855 29.8817 12.9844 30.3597 16.1245 28.2699C16.9908 30.6667 21.1579 30.8237 22.0734 28.2699L22.1226 28.3013C22.6197 26.478 23.5392 24.8166 24.7968 23.4693C26.1281 22.0509 27.7908 21.0355 29.6138 20.5276C31.4369 20.0197 33.3543 20.0377 35.1686 20.5797C36.9829 21.1216 38.6286 22.1681 39.9361 23.6111C41.2436 25.0542 42.1657 26.8417 42.6074 28.7897ZM28.8721 30.9423C28.4695 30.8189 28.1078 30.577 27.8287 30.2445C29.4693 29.5886 28.5735 26.6895 29.0526 25.2207C29.6728 23.3123 31.9663 22.6599 33.246 23.7763C34.2304 23.6647 35.2607 24.2124 35.4773 25.8696C35.6577 27.2477 35.0179 29.6131 36.5109 30.3736C36.1852 30.6721 35.7914 30.8742 35.369 30.9598C34.7745 31.0796 34.1723 31.1508 33.5676 31.1726V31.7482L34.1976 32.8158L32.1698 34.5009L30.1453 32.8158L30.5948 31.7936V31.1726C30.0142 31.1661 29.4362 31.0888 28.8721 30.9423ZM35.3526 33.7159C35.1284 33.1446 34.8107 32.6201 34.4142 32.1669C38.0596 33.6671 37.738 32.6518 38.4927 35.7917C38.5616 36.0778 38.6404 36.3988 38.729 36.7581C35.7759 40.7877 28.7409 40.7877 25.604 36.7581C25.6959 36.4093 25.7746 36.0604 25.8436 35.7743C26.5851 32.6762 26.2504 33.681 29.9418 32.1739C29.5441 32.6261 29.2262 33.1508 29.0034 33.7229L29.9549 33.6985L32.1173 35.5371L34.3879 33.6985L35.3526 33.7229V33.7159ZM38.962 24.3624C38.0883 23.4323 37.0507 22.6945 35.9086 22.191C34.7665 21.6876 33.5423 21.4285 32.306 21.4285C31.0696 21.4285 29.8454 21.6876 28.7033 22.191C27.5612 22.6945 26.5237 23.4323 25.65 24.3624C23.9084 26.2534 22.9331 28.7946 22.9331 31.4412C22.9331 34.0878 23.9084 36.629 25.65 38.52C26.5199 39.4701 27.5586 40.2269 28.7059 40.7466C29.8533 41.2662 31.0862 41.5383 32.3333 41.547C33.5803 41.5558 34.8166 41.301 35.9702 40.7974C37.1239 40.2939 38.1719 39.5517 39.0535 38.6138C39.9351 37.676 40.6327 36.5613 41.1057 35.3344C41.5787 34.1075 41.8177 32.793 41.8089 31.467C41.8001 30.1411 41.5436 28.8303 41.0543 27.6106C40.565 26.391 39.8527 25.2869 38.9587 24.3624H38.962ZM17.1023 28.0815C17.1205 27.901 17.1706 27.7258 17.25 27.5651C17.0216 27.384 16.8329 27.1523 16.6969 26.8861C16.561 26.6198 16.481 26.3254 16.4625 26.0231H16.4198C16.3211 26.0237 16.2239 25.9973 16.1376 25.9463C15.9974 25.8508 15.8893 25.7103 15.8292 25.5451C15.6848 25.1962 15.5733 24.2752 15.9342 24.0135L15.8653 23.9682V23.8635C15.8653 23.6786 15.8456 23.4553 15.8423 23.2216C15.8423 22.3564 15.8128 21.3097 15.1598 21.1004L14.8809 21.0097L15.0581 20.7899C15.5432 20.14 16.0933 19.5481 16.6987 19.0245C17.2377 18.5256 17.8887 18.1832 18.5887 18.0302C18.9151 17.9751 19.2488 17.9955 19.567 18.0901C19.8852 18.1846 20.1806 18.351 20.4328 18.578C20.6137 18.7349 20.7786 18.9114 20.925 19.1048C21.218 19.1384 21.5011 19.2375 21.7556 19.3956C22.01 19.5538 22.2302 19.7673 22.4015 20.0223C22.6208 20.3366 22.7833 20.6915 22.8806 21.069C22.9849 21.4482 23.0292 21.8431 23.0118 22.2377C22.9905 22.9497 22.7162 23.6267 22.244 24.1322C22.3276 24.1343 22.4096 24.157 22.4836 24.1984C22.598 24.2813 22.6816 24.404 22.7199 24.5454C22.7582 24.6869 22.7489 24.8381 22.6936 24.973C22.6214 25.2067 22.5328 25.4823 22.4475 25.7126C22.3457 26.0231 22.1948 26.0789 21.9028 26.0615C21.8864 26.8255 21.555 27.2058 21.1054 27.6558L21.2072 28.0326C20.925 29.4945 17.9259 29.6514 17.1023 28.1129V28.0815ZM43.4704 28.4653C43.4849 28.2962 43.5295 28.1317 43.6016 27.9803C43.3896 27.8092 43.2145 27.5918 43.0883 27.3426C42.9621 27.0934 42.8876 26.8183 42.8699 26.5359H42.8437C42.7514 26.5349 42.661 26.5084 42.5812 26.4592C42.4473 26.3713 42.3447 26.2388 42.2891 26.0824C42.1546 25.7544 42.0496 24.8927 42.3876 24.645L42.3219 24.5997V24.5055C42.3219 24.331 42.3219 24.1182 42.3023 23.8984C42.3023 23.0855 42.276 22.1017 41.646 21.9063L41.3835 21.8191L41.5574 21.5923C42.0103 20.9792 42.5265 20.4222 43.0963 19.9316C43.6059 19.4669 44.2195 19.1496 44.878 19.0106C45.1847 18.9584 45.4984 18.9776 45.7975 19.0667C46.0966 19.1559 46.374 19.3129 46.6105 19.5269C46.7799 19.6752 46.9349 19.8412 47.0732 20.0223C47.3485 20.0541 47.6145 20.1473 47.8536 20.2957C48.0928 20.4442 48.2998 20.6447 48.4611 20.8841C48.6654 21.176 48.8188 21.5045 48.914 21.854C49.0101 22.2109 49.0511 22.582 49.0354 22.9529C49.0138 23.6215 48.7561 24.2568 48.3135 24.7322C48.3914 24.7345 48.4678 24.756 48.5366 24.795C48.6447 24.8719 48.7239 24.9866 48.7605 25.1193C48.7971 25.2519 48.7887 25.394 48.7368 25.5207C48.6679 25.744 48.5825 25.9987 48.5038 26.2185C48.4086 26.5115 48.2675 26.5673 47.9919 26.5359C47.9919 27.2546 47.6638 27.6105 47.2438 28.0326L47.339 28.3815C47.0699 29.7561 44.2447 29.9061 43.4802 28.4583L43.4704 28.4653Z" fill="white"/>
</svg>
