<svg width="10" height="10" viewBox="0 0 10 10" fill="none" xmlns="http://www.w3.org/2000/svg">
<path fill-rule="evenodd" clip-rule="evenodd" d="M3.46164 0C3.56365 0 3.66147 0.0405213 3.7336 0.11265C3.80573 0.184778 3.84625 0.282605 3.84625 0.38461V1.15691C4.76234 1.17072 5.67701 1.23423 6.58621 1.34716C6.63635 1.35342 6.68476 1.3695 6.72869 1.39447C6.77261 1.41945 6.81119 1.45283 6.84221 1.49271C6.87324 1.53259 6.8961 1.57819 6.9095 1.62691C6.9229 1.67563 6.92658 1.72651 6.92031 1.77664C6.91405 1.82678 6.89797 1.87519 6.873 1.91912C6.84803 1.96304 6.81465 2.00162 6.77477 2.03264C6.73488 2.06366 6.68928 2.08653 6.64057 2.09993C6.59185 2.11333 6.54097 2.117 6.49083 2.11074C6.15146 2.06824 5.81121 2.03302 5.47033 2.0051C5.17118 3.17214 4.65445 4.27224 3.94727 5.24762C4.11035 5.44454 4.2806 5.63377 4.46009 5.81582C4.52749 5.88934 4.56369 5.98617 4.56105 6.08588C4.55842 6.18559 4.51715 6.28037 4.44596 6.35023C4.37477 6.42009 4.27922 6.45956 4.17949 6.46031C4.07975 6.46107 3.98362 6.42305 3.91138 6.35427C3.75593 6.19656 3.60593 6.03356 3.46164 5.86556C2.65211 6.81161 1.66718 7.59209 0.561166 8.16399C0.470518 8.21078 0.364996 8.21964 0.267815 8.18862C0.170634 8.15761 0.0897543 8.08926 0.042968 7.99861C-0.00381825 7.90796 -0.0126783 7.80244 0.0183369 7.70526C0.0493521 7.60808 0.117702 7.5272 0.20835 7.48041C1.27173 6.93038 2.21296 6.17109 2.97549 5.24814C2.52806 4.63028 2.15587 3.9613 1.86679 3.25534C1.83044 3.1614 1.83239 3.05696 1.87223 2.96444C1.91206 2.87193 1.9866 2.79874 2.07982 2.76059C2.17304 2.72244 2.2775 2.72238 2.37077 2.76043C2.46403 2.79848 2.53864 2.87159 2.57858 2.96406C2.81439 3.53963 3.11039 4.08866 3.46164 4.60199C4.01488 3.79347 4.42928 2.89827 4.68778 1.95331C3.26745 1.88287 1.84369 1.93554 0.43245 2.11074C0.331193 2.12339 0.229059 2.0953 0.148515 2.03264C0.067972 1.96998 0.0156173 1.8779 0.00296866 1.77664C-0.00967996 1.67539 0.0184136 1.57325 0.0810691 1.49271C0.143725 1.41216 0.23581 1.35981 0.337067 1.34716C1.24625 1.234 2.16093 1.17049 3.07703 1.15691V0.38461C3.07703 0.282605 3.11755 0.184778 3.18968 0.11265C3.26181 0.0405213 3.35964 0 3.46164 0ZM6.92313 3.46149C6.99637 3.46146 7.06809 3.48235 7.12986 3.52168C7.19163 3.56102 7.24089 3.61717 7.27185 3.68354L9.96412 9.45269C9.98547 9.49849 9.99758 9.54804 9.99978 9.59852C10.002 9.64899 9.99422 9.69941 9.97693 9.74689C9.95964 9.79436 9.93318 9.83797 9.89904 9.87522C9.8649 9.91246 9.82376 9.94262 9.77797 9.96397C9.68548 10.0071 9.57966 10.0117 9.48378 9.97678C9.38789 9.94187 9.3098 9.8703 9.26669 9.77782L8.65234 8.46143H5.19393L4.57957 9.77782C4.53646 9.8703 4.45837 9.94187 4.36249 9.97678C4.26661 10.0117 4.16078 10.0071 4.0683 9.96397C3.97581 9.92086 3.90424 9.84277 3.86933 9.74689C3.83442 9.651 3.83903 9.54518 3.88215 9.45269L6.57442 3.68354C6.60537 3.61717 6.65463 3.56102 6.71641 3.52168C6.77818 3.48235 6.8499 3.46146 6.92313 3.46149ZM5.55289 7.69221H8.29337L6.92313 4.75583L5.55289 7.69221Z" fill="#888888"/>
</svg>
