<svg width="16" height="16" viewBox="0 0 16 16" fill="none" xmlns="http://www.w3.org/2000/svg">
<path fill-rule="evenodd" clip-rule="evenodd" d="M5.8463 1C5.9891 1 6.12606 1.05673 6.22704 1.15771C6.32802 1.25869 6.38475 1.39565 6.38475 1.53845V2.61967C7.66728 2.639 8.94781 2.72792 10.2207 2.88603C10.2909 2.89479 10.3587 2.9173 10.4202 2.95226C10.4817 2.98723 10.5357 3.03396 10.5791 3.08979C10.6225 3.14563 10.6545 3.20947 10.6733 3.27767C10.6921 3.34588 10.6972 3.41711 10.6884 3.4873C10.6797 3.55749 10.6572 3.62527 10.6222 3.68676C10.5872 3.74826 10.5405 3.80226 10.4847 3.8457C10.4288 3.88913 10.365 3.92114 10.2968 3.9399C10.2286 3.95866 10.1574 3.96381 10.0872 3.95504C9.61204 3.89554 9.1357 3.84623 8.65846 3.80714C8.23965 5.441 7.51623 6.98113 6.52619 8.34667C6.75449 8.62236 6.99285 8.88728 7.24412 9.14215C7.33848 9.24508 7.38916 9.38064 7.38547 9.52023C7.38178 9.65982 7.32401 9.79252 7.22434 9.89032C7.12468 9.98812 6.99091 10.0434 6.85128 10.0444C6.71165 10.0455 6.57706 9.99227 6.47593 9.89598C6.2583 9.67518 6.0483 9.44698 5.8463 9.21179C4.71295 10.5362 3.33406 11.6289 1.78563 12.4296C1.65873 12.4951 1.511 12.5075 1.37494 12.4641C1.23889 12.4207 1.12566 12.325 1.06016 12.1981C0.994654 12.0711 0.98225 11.9234 1.02567 11.7874C1.06909 11.6513 1.16478 11.5381 1.29169 11.4726C2.78042 10.7025 4.09814 9.63952 5.16569 8.34739C4.53928 7.48239 4.01821 6.54582 3.61351 5.55748C3.56262 5.42597 3.56535 5.27974 3.62112 5.15022C3.67689 5.0207 3.78124 4.91823 3.91175 4.86482C4.04225 4.81142 4.18851 4.81134 4.31907 4.8646C4.44964 4.91787 4.5541 5.02023 4.61001 5.14969C4.94015 5.95548 5.35455 6.72412 5.8463 7.44279C6.62083 6.31085 7.20099 5.05758 7.56289 3.73463C5.57443 3.63602 3.58117 3.70976 1.60543 3.95504C1.46367 3.97275 1.32068 3.93341 1.20792 3.8457C1.09516 3.75798 1.02186 3.62906 1.00416 3.4873C0.986448 3.34554 1.02578 3.20255 1.1135 3.08979C1.20121 2.97703 1.33013 2.90373 1.47189 2.88603C2.74475 2.7276 4.0253 2.63868 5.30784 2.61967V1.53845C5.30784 1.39565 5.36457 1.25869 5.46555 1.15771C5.56653 1.05673 5.70349 1 5.8463 1ZM10.6924 5.84609C10.7949 5.84605 10.8953 5.87528 10.9818 5.93035C11.0683 5.98542 11.1373 6.06404 11.1806 6.15696L14.9498 14.2338C14.9797 14.2979 14.9966 14.3673 14.9997 14.4379C15.0028 14.5086 14.9919 14.5792 14.9677 14.6456C14.9435 14.7121 14.9064 14.7732 14.8587 14.8253C14.8109 14.8774 14.7533 14.9197 14.6892 14.9496C14.5597 15.0099 14.4115 15.0164 14.2773 14.9675C14.1431 14.9186 14.0337 14.8184 13.9734 14.6889L13.1133 12.846H8.2715L7.4114 14.6889C7.35105 14.8184 7.24172 14.9186 7.10749 14.9675C6.97325 15.0164 6.8251 15.0099 6.69562 14.9496C6.56614 14.8892 6.46594 14.7799 6.41707 14.6456C6.36819 14.5114 6.37465 14.3633 6.43501 14.2338L10.2042 6.15696C10.2475 6.06404 10.3165 5.98542 10.403 5.93035C10.4895 5.87528 10.5899 5.84605 10.6924 5.84609ZM8.77405 11.7691H12.6107L10.6924 7.65817L8.77405 11.7691Z" fill="#BCBABA" stroke="#BCBABA" stroke-width="0.3"/>
</svg>
