<svg width="12" height="14" viewBox="0 0 12 14" fill="none" xmlns="http://www.w3.org/2000/svg">
<path d="M6.26852 0.605591C7.71425 0.605591 9.10077 1.17991 10.1231 2.20219C11.1453 3.22448 11.7197 4.611 11.7197 6.05673C11.7197 8.3135 9.99952 10.6781 6.63193 13.2038C6.52709 13.2824 6.39957 13.3249 6.26852 13.3249C6.13747 13.3249 6.00995 13.2824 5.90511 13.2038C2.53752 10.6781 0.817383 8.3135 0.817383 6.05673C0.817383 4.611 1.3917 3.22448 2.41398 2.20219C3.43627 1.17991 4.82279 0.605591 6.26852 0.605591ZM6.26852 1.81695C5.14406 1.81695 4.06566 2.26364 3.27055 3.05876C2.47544 3.85387 2.02875 4.93227 2.02875 6.05673C2.02875 7.69813 3.31158 9.59149 5.93418 11.6932L6.26852 11.9573L6.60286 11.6932C9.22546 9.59149 10.5083 7.69813 10.5083 6.05673C10.5083 4.93227 10.0616 3.85387 9.26649 3.05876C8.47138 2.26364 7.39298 1.81695 6.26852 1.81695ZM6.26852 4.84536C6.58979 4.84536 6.89791 4.97299 7.12508 5.20016C7.35226 5.42734 7.47988 5.73545 7.47988 6.05673C7.47988 6.378 7.35226 6.68612 7.12508 6.91329C6.89791 7.14047 6.58979 7.26809 6.26852 7.26809C5.94725 7.26809 5.63913 7.14047 5.41196 6.91329C5.18478 6.68612 5.05716 6.378 5.05716 6.05673C5.05716 5.73545 5.18478 5.42734 5.41196 5.20016C5.63913 4.97299 5.94725 4.84536 6.26852 4.84536Z" fill="#9FA3A3"/>
</svg>
