<svg width="10" height="10" viewBox="0 0 10 10" fill="none" xmlns="http://www.w3.org/2000/svg">
<path d="M1.36842 9.125C1.12961 9.125 0.925237 9.04004 0.755316 8.87012C0.585395 8.7002 0.500289 8.49568 0.5 8.25658V3.48026C0.5 3.24145 0.585105 3.03708 0.755316 2.86716C0.925526 2.69724 1.12989 2.61213 1.36842 2.61184H3.10526V1.74342C3.10526 1.50461 3.19037 1.30024 3.36058 1.13032C3.53079 0.960395 3.73516 0.875289 3.97368 0.875H5.71053C5.94934 0.875 6.15385 0.960105 6.32406 1.13032C6.49428 1.30053 6.57924 1.50489 6.57895 1.74342V2.61184H8.31579C8.5546 2.61184 8.75912 2.69695 8.92933 2.86716C9.09954 3.03737 9.1845 3.24174 9.18421 3.48026V8.25658C9.18421 8.49539 9.09925 8.69991 8.92933 8.87012C8.75941 9.04033 8.55489 9.12529 8.31579 9.125H1.36842ZM1.36842 8.25658H8.31579V3.48026H1.36842V8.25658ZM3.97368 2.61184H5.71053V1.74342H3.97368V2.61184Z" fill="white"/>
</svg>
