<svg width="12" height="12" viewBox="0 0 12 12" fill="none" xmlns="http://www.w3.org/2000/svg">
<path d="M3.876 3.876C4.44 3.318 5.202 3 6 3C6.798 3 7.56 3.318 8.124 3.876L3.876 8.124C3.31572 7.55896 3.00094 6.79573 3 6C3 5.202 3.318 4.44 3.876 3.876ZM3.702 0.456C4.43105 0.155969 5.21163 0.00107491 6 0C6.786 0 7.566 0.156 8.298 0.456C9.024 0.756 9.684 1.2 10.242 1.758C10.8 2.316 11.244 2.976 11.544 3.702C11.844 4.434 12 5.214 12 6C12 7.59 11.37 9.12 10.242 10.242C9.68549 10.7999 9.02428 11.2424 8.29632 11.544C7.56837 11.8457 6.788 12.0007 6 12C5.21163 11.9989 4.43105 11.844 3.702 11.544C2.97465 11.2421 2.31403 10.7997 1.758 10.242C1.20012 9.68549 0.757638 9.02428 0.455953 8.29632C0.154268 7.56837 -0.000680425 6.78799 2.24599e-06 6C2.24599e-06 4.41 0.630002 2.88 1.758 1.758C2.316 1.2 2.976 0.756 3.702 0.456ZM2.604 9.396C3.504 10.296 4.728 10.8 6 10.8C7.272 10.8 8.496 10.296 9.396 9.396C10.296 8.496 10.8 7.272 10.8 6C10.8 4.728 10.296 3.504 9.396 2.604C8.49476 1.7045 7.27332 1.19953 6 1.2C4.728 1.2 3.504 1.704 2.604 2.604C1.7045 3.50524 1.19953 4.72668 1.2 6C1.2 7.272 1.704 8.496 2.604 9.396Z" fill="#FFCA02"/>
</svg>
