<svg width="10" height="8" viewBox="0 0 10 8" fill="none" xmlns="http://www.w3.org/2000/svg">
<path d="M8.95191 0H1.01151C0.861084 0 0.716822 0.0597554 0.610457 0.166121C0.504091 0.272486 0.444336 0.416748 0.444336 0.567172V6.23889C0.444336 6.38931 0.504091 6.53358 0.610457 6.63994C0.716822 6.74631 0.861084 6.80606 1.01151 6.80606H5.2653L5.42694 6.60755L5.69068 6.28426L5.66515 6.23889H1.01151V0.567172H8.95191V2.99467C9.16736 3.13413 9.35888 3.30746 9.51908 3.50796V0.567172C9.51908 0.416748 9.45933 0.272486 9.35296 0.166121C9.2466 0.0597554 9.10234 0 8.95191 0Z" fill="#888888"/>
<path d="M1.8623 1.70154H6.68326V2.15528H1.8623V1.70154Z" fill="#888888"/>
<path d="M1.8623 2.83588H4.98175V3.28961H1.8623V2.83588Z" fill="#888888"/>
<path d="M1.8623 4.82092H4.69816V5.27466H1.8623V4.82092Z" fill="#888888"/>
<path d="M7.66461 3.18469C7.30171 3.18181 6.94639 3.28847 6.64507 3.49073C6.34375 3.69299 6.11046 3.98144 5.97568 4.3184C5.8409 4.65535 5.8109 5.02512 5.88961 5.37939C5.96831 5.73366 6.15206 6.05595 6.41683 6.30413L5.86667 6.97623L6.1219 7.99998L7.15983 6.73518C7.48837 6.83233 7.83801 6.83233 8.16656 6.73518L9.20448 7.99998L9.45971 6.97623L8.90955 6.30413C9.17432 6.05595 9.35807 5.73366 9.43677 5.37939C9.51548 5.02512 9.48548 4.65535 9.3507 4.3184C9.21592 3.98144 8.98263 3.69299 8.68131 3.49073C8.37999 3.28847 8.02467 3.18181 7.66177 3.18469H7.66461ZM7.66461 6.21339C7.42362 6.21003 7.18901 6.1355 6.99026 5.99918C6.79151 5.86285 6.6375 5.67081 6.5476 5.4472C6.45769 5.22359 6.4359 4.97838 6.48496 4.74242C6.53403 4.50646 6.65176 4.29027 6.82335 4.12103C6.99495 3.95179 7.21274 3.83706 7.44936 3.79126C7.68598 3.74547 7.93086 3.77064 8.15321 3.86363C8.37555 3.95662 8.56545 4.11327 8.69901 4.31388C8.83258 4.5145 8.90386 4.75012 8.90388 4.99113C8.90088 5.31732 8.76881 5.62904 8.53657 5.85809C8.30432 6.08715 7.9908 6.2149 7.66461 6.21339Z" fill="#888888"/>
</svg>
