<svg width="64" height="64" viewBox="0 0 64 64" fill="none" xmlns="http://www.w3.org/2000/svg">
<circle cx="32" cy="32" r="30.5" stroke="white" stroke-width="3"/>
<path d="M49.0498 44.6014V48.8V49.05H48.7998H38.7148H38.4648V48.8V45.184C37.3153 44.7915 36.2612 44.1604 35.3719 43.3314C34.4378 42.4607 33.709 41.3933 33.2382 40.2066L33.2377 40.2054C32.7491 38.9551 33.7269 37.6301 35.0504 37.63C35.0505 37.63 35.0505 37.63 35.0506 37.63V37.88L49.0498 44.6014ZM49.0498 44.6014C49.0674 43.0666 47.8272 41.83 46.2953 41.83H41.2528C39.2405 41.83 37.5325 40.6018 36.8295 38.8467L49.0498 44.6014ZM27.1892 20.3613L27.1892 20.3613L27.1875 20.3656C26.8344 21.2488 26.224 22.0056 25.4353 22.5378C24.6466 23.0699 23.7161 23.3529 22.7645 23.35H22.7637H17.7212C16.1882 23.35 14.95 24.5874 14.95 26.12V30.32V30.57H15.2H25.2849H25.5349V30.32V26.7044C26.6857 26.3144 27.7412 25.6841 28.6309 24.8547C29.5651 23.9838 30.293 22.9153 30.7612 21.7273C31.2692 20.475 30.2884 19.15 28.966 19.15C28.1685 19.15 27.4941 19.6376 27.1892 20.3613ZM33.9076 33.4448L33.6636 33.3906L33.6635 33.3906L33.6635 33.3907L33.6635 33.3909L33.6634 33.3914L33.663 33.3932L33.6617 33.3992L33.6574 33.4199C33.6539 33.4371 33.6492 33.461 33.6445 33.488C33.636 33.5368 33.624 33.6144 33.624 33.68C33.624 34.7422 34.4924 35.61 35.5548 35.61C36.4526 35.61 37.2206 35.0036 37.4399 34.1787L37.4441 34.1793C37.6595 33.3446 38.0948 32.5828 38.7046 31.9732C39.3145 31.3637 40.0767 30.9286 40.9118 30.7133L41.3359 30.604L41.2932 30.5613C41.9162 30.2388 42.3432 29.5809 42.3432 28.8416C42.3432 27.7794 41.4748 26.9116 40.4124 26.9116C40.3629 26.9116 40.3159 26.9175 40.2848 26.9214L40.2806 26.9219C40.2443 26.9265 40.2262 26.9284 40.2107 26.9284H40.1826L40.1552 26.9346C38.577 27.2943 37.1316 28.0899 35.9839 29.2309C34.8362 30.3719 34.0324 31.8123 33.6641 33.3879L33.6636 33.3905L33.9076 33.4448ZM40.6781 23.9322L40.6781 23.9322L40.6831 23.9315C41.6269 23.7967 42.3432 23.0049 42.3432 22.0208C42.3432 20.957 41.4732 20.0908 40.3956 20.0908H40.3788H40.3646L40.3505 20.0924C33.2941 20.895 27.6729 26.4618 26.8184 33.4987L26.8166 33.5137V33.5288V33.68H26.8166L26.8167 33.684C26.8244 34.1662 27.0122 34.6281 27.3431 34.979C27.674 35.3299 28.1242 35.5445 28.6052 35.5808C29.0863 35.617 29.5635 35.4723 29.9433 35.1749C30.3231 34.8776 30.578 34.4491 30.658 33.9735L30.6583 33.9735L30.6596 33.9623C31.3013 28.7168 35.4306 24.5734 40.6781 23.9322ZM23.8541 18.56C23.8541 16.557 22.2461 14.95 20.2424 14.95C18.2388 14.95 16.6308 16.557 16.6308 18.56C16.6308 20.563 18.2388 22.17 20.2424 22.17C22.2461 22.17 23.8541 20.563 23.8541 18.56ZM43.7741 40.65C45.7778 40.65 47.3857 39.043 47.3857 37.04C47.3857 35.037 45.7778 33.43 43.7741 33.43C41.7704 33.43 40.1624 35.037 40.1624 37.04C40.1624 39.043 41.7704 40.65 43.7741 40.65Z" fill="white" stroke="white" stroke-width="0.5"/>
</svg>
