<svg width="9" height="9" viewBox="0 0 9 9" fill="none" xmlns="http://www.w3.org/2000/svg">
<path d="M8.18501 7.72498L7.46122 7.00153C7.61369 6.76878 7.70721 6.50241 7.7337 6.22543C7.76018 5.94845 7.71884 5.66918 7.61325 5.41175C7.50765 5.15432 7.34097 4.92646 7.12761 4.74787C6.91425 4.56927 6.66062 4.44529 6.38862 4.38666L6.37726 4.38459V2.98349C6.37731 2.90225 6.34893 2.82355 6.29703 2.76105L6.29737 2.76174V2.76002C6.29085 2.75212 6.28395 2.74454 6.27671 2.73729L6.27395 2.73419L6.26466 2.7249L3.70281 0.163046C3.69568 0.155918 3.68821 0.149138 3.68043 0.14273L3.67147 0.136532C3.66588 0.131979 3.66014 0.127615 3.65426 0.123447L3.64565 0.117249L3.62705 0.105542L3.61913 0.10141C3.61133 0.0968187 3.60272 0.0925719 3.59331 0.0886694L3.58229 0.0841931L3.56473 0.0779951L3.55233 0.0742074L3.53236 0.0690424L3.52272 0.0669764C3.51294 0.064955 3.50305 0.0634607 3.49311 0.0625H0.412C0.319596 0.0628605 0.231065 0.0996571 0.165629 0.1649C0.100192 0.230143 0.0631341 0.318565 0.0625 0.410967L0.0625 7.42748C0.0625899 7.52027 0.0993972 7.60926 0.164882 7.675C0.230367 7.74074 0.319208 7.7779 0.412 7.77835H6.0281C6.36385 7.77894 6.69222 7.67983 6.97158 7.49359L6.96538 7.49738L7.68917 8.22117C7.7559 8.28187 7.84345 8.31455 7.93363 8.3124C8.02382 8.31026 8.10971 8.27346 8.17348 8.20964C8.23725 8.14583 8.27399 8.05991 8.27607 7.96973C8.27815 7.87954 8.24542 7.79201 8.18467 7.72533L8.18501 7.72567V7.72498ZM7.0401 6.06288C7.04012 6.19598 7.01393 6.32778 6.96301 6.45076C6.9121 6.57374 6.83746 6.68548 6.74336 6.77962C6.64926 6.87375 6.53754 6.94843 6.41458 6.99938C6.29162 7.05034 6.15982 7.07658 6.02672 7.0766C5.89362 7.07662 5.76182 7.05043 5.63884 6.99951C5.51586 6.9486 5.40412 6.87396 5.30998 6.77986C5.21585 6.68576 5.14118 6.57404 5.09022 6.45108C5.03926 6.32812 5.01302 6.19632 5.013 6.06322C5.01291 5.79441 5.11961 5.53658 5.30962 5.34643C5.49963 5.15629 5.7574 5.04942 6.02621 5.04933C6.29502 5.04924 6.55285 5.15593 6.74299 5.34595C6.93314 5.53596 7.04001 5.79407 7.0401 6.06288ZM3.80473 1.25734L5.17966 2.63261H3.80473V1.25734ZM0.764254 0.7615H3.10332V2.98349C3.10332 3.17735 3.26034 3.33437 3.4542 3.33437H5.67619V4.38459C4.8918 4.55228 4.31194 5.23957 4.31194 6.06253C4.31194 6.4444 4.43658 6.797 4.64766 7.08176L4.64422 7.07729H0.76391L0.764254 0.7615Z" fill="#888888"/>
</svg>
