<svg width="18" height="18" viewBox="0 0 18 18" fill="none" xmlns="http://www.w3.org/2000/svg">
<circle cx="9" cy="9" r="9" fill="#05494C"/>
<path d="M11.8875 5.7H11.0625V5.2875C11.0625 5.1781 11.019 5.07318 10.9417 4.99582C10.8643 4.91846 10.7594 4.875 10.65 4.875C10.5406 4.875 10.4357 4.91846 10.3583 4.99582C10.281 5.07318 10.2375 5.1781 10.2375 5.2875V5.7H7.7625V5.2875C7.7625 5.1781 7.71904 5.07318 7.64168 4.99582C7.56432 4.91846 7.4594 4.875 7.35 4.875C7.2406 4.875 7.13568 4.91846 7.05832 4.99582C6.98096 5.07318 6.9375 5.1781 6.9375 5.2875V5.7H6.1125C5.78429 5.7 5.46953 5.83038 5.23746 6.06246C5.00538 6.29453 4.875 6.60929 4.875 6.9375V11.8875C4.875 12.2157 5.00538 12.5305 5.23746 12.7625C5.46953 12.9946 5.78429 13.125 6.1125 13.125H11.8875C12.2157 13.125 12.5305 12.9946 12.7625 12.7625C12.9946 12.5305 13.125 12.2157 13.125 11.8875V6.9375C13.125 6.60929 12.9946 6.29453 12.7625 6.06246C12.5305 5.83038 12.2157 5.7 11.8875 5.7ZM12.3 11.8875C12.3 11.9969 12.2565 12.1018 12.1792 12.1792C12.1018 12.2565 11.9969 12.3 11.8875 12.3H6.1125C6.0031 12.3 5.89818 12.2565 5.82082 12.1792C5.74346 12.1018 5.7 11.9969 5.7 11.8875V9H12.3V11.8875ZM12.3 8.175H5.7V6.9375C5.7 6.8281 5.74346 6.72318 5.82082 6.64582C5.89818 6.56846 6.0031 6.525 6.1125 6.525H6.9375V6.9375C6.9375 7.0469 6.98096 7.15182 7.05832 7.22918C7.13568 7.30654 7.2406 7.35 7.35 7.35C7.4594 7.35 7.56432 7.30654 7.64168 7.22918C7.71904 7.15182 7.7625 7.0469 7.7625 6.9375V6.525H10.2375V6.9375C10.2375 7.0469 10.281 7.15182 10.3583 7.22918C10.4357 7.30654 10.5406 7.35 10.65 7.35C10.7594 7.35 10.8643 7.30654 10.9417 7.22918C11.019 7.15182 11.0625 7.0469 11.0625 6.9375V6.525H11.8875C11.9969 6.525 12.1018 6.56846 12.1792 6.64582C12.2565 6.72318 12.3 6.8281 12.3 6.9375V8.175Z" fill="white"/>
</svg>
