<svg width="10" height="10" viewBox="0 0 10 10" fill="none" xmlns="http://www.w3.org/2000/svg">
<path d="M7.8875 1.7H7.0625V1.2875C7.0625 1.1781 7.01904 1.07318 6.94168 0.995818C6.86432 0.91846 6.7594 0.875 6.65 0.875C6.5406 0.875 6.43568 0.91846 6.35832 0.995818C6.28096 1.07318 6.2375 1.1781 6.2375 1.2875V1.7H3.7625V1.2875C3.7625 1.1781 3.71904 1.07318 3.64168 0.995818C3.56432 0.91846 3.4594 0.875 3.35 0.875C3.2406 0.875 3.13568 0.91846 3.05832 0.995818C2.98096 1.07318 2.9375 1.1781 2.9375 1.2875V1.7H2.1125C1.78429 1.7 1.46953 1.83038 1.23746 2.06246C1.00538 2.29453 0.875 2.60929 0.875 2.9375V7.8875C0.875 8.21571 1.00538 8.53047 1.23746 8.76254C1.46953 8.99462 1.78429 9.125 2.1125 9.125H7.8875C8.21571 9.125 8.53047 8.99462 8.76254 8.76254C8.99462 8.53047 9.125 8.21571 9.125 7.8875V2.9375C9.125 2.60929 8.99462 2.29453 8.76254 2.06246C8.53047 1.83038 8.21571 1.7 7.8875 1.7ZM8.3 7.8875C8.3 7.9969 8.25654 8.10182 8.17918 8.17918C8.10182 8.25654 7.9969 8.3 7.8875 8.3H2.1125C2.0031 8.3 1.89818 8.25654 1.82082 8.17918C1.74346 8.10182 1.7 7.9969 1.7 7.8875V5H8.3V7.8875ZM8.3 4.175H1.7V2.9375C1.7 2.8281 1.74346 2.72318 1.82082 2.64582C1.89818 2.56846 2.0031 2.525 2.1125 2.525H2.9375V2.9375C2.9375 3.0469 2.98096 3.15182 3.05832 3.22918C3.13568 3.30654 3.2406 3.35 3.35 3.35C3.4594 3.35 3.56432 3.30654 3.64168 3.22918C3.71904 3.15182 3.7625 3.0469 3.7625 2.9375V2.525H6.2375V2.9375C6.2375 3.0469 6.28096 3.15182 6.35832 3.22918C6.43568 3.30654 6.5406 3.35 6.65 3.35C6.7594 3.35 6.86432 3.30654 6.94168 3.22918C7.01904 3.15182 7.0625 3.0469 7.0625 2.9375V2.525H7.8875C7.9969 2.525 8.10182 2.56846 8.17918 2.64582C8.25654 2.72318 8.3 2.8281 8.3 2.9375V4.175Z" fill="#888888"/>
</svg>
