<svg width="18" height="18" viewBox="0 0 18 18" fill="none" xmlns="http://www.w3.org/2000/svg">
<path d="M2 1C2 0.734784 1.89464 0.48043 1.70711 0.292893C1.51957 0.105357 1.26522 0 1 0C0.734784 0 0.48043 0.105357 0.292893 0.292893C0.105357 0.48043 0 0.734784 0 1V14.5C0 15.4283 0.368749 16.3185 1.02513 16.9749C1.6815 17.6313 2.57174 18 3.5 18H17C17.2652 18 17.5196 17.8946 17.7071 17.7071C17.8946 17.5196 18 17.2652 18 17C18 16.7348 17.8946 16.4804 17.7071 16.2929C17.5196 16.1054 17.2652 16 17 16H3.5C3.10218 16 2.72064 15.842 2.43934 15.5607C2.15804 15.2794 2 14.8978 2 14.5V1ZM12 3C11.7348 3 11.4804 3.10536 11.2929 3.29289C11.1054 3.48043 11 3.73478 11 4C11 4.26522 11.1054 4.51957 11.2929 4.70711C11.4804 4.89464 11.7348 5 12 5H14.086L10.25 8.836L8.457 7.043C8.26947 6.85553 8.01516 6.75021 7.75 6.75021C7.48484 6.75021 7.23053 6.85553 7.043 7.043L3.793 10.293C3.69749 10.3852 3.62131 10.4956 3.5689 10.6176C3.51649 10.7396 3.4889 10.8708 3.48775 11.0036C3.4866 11.1364 3.5119 11.2681 3.56218 11.391C3.61246 11.5139 3.68671 11.6255 3.7806 11.7194C3.8745 11.8133 3.98615 11.8875 4.10905 11.9378C4.23194 11.9881 4.36362 12.0134 4.4964 12.0123C4.62918 12.0111 4.7604 11.9835 4.8824 11.9311C5.00441 11.8787 5.11475 11.8025 5.207 11.707L7.75 9.164L9.543 10.957C9.73053 11.1445 9.98484 11.2498 10.25 11.2498C10.5152 11.2498 10.7695 11.1445 10.957 10.957L15.501 6.414L15.5 8.5C15.5 8.76522 15.6054 9.01957 15.7929 9.20711C15.9804 9.39464 16.2348 9.5 16.5 9.5C16.7652 9.5 17.0196 9.39464 17.2071 9.20711C17.3946 9.01957 17.5 8.76522 17.5 8.5L17.502 4C17.502 3.73478 17.3966 3.48043 17.2091 3.29289C17.0216 3.10536 16.7672 3 16.502 3H12Z" fill="#888888"/>
</svg>
