<svg width="19" height="18" viewBox="0 0 19 18" fill="none" xmlns="http://www.w3.org/2000/svg">
<rect width="19" height="18" rx="4" fill="#FFCA02"/>
<rect x="5.45426" y="4.45426" width="9.09148" height="9.09148" rx="4.54574" stroke="#222222" stroke-width="0.908523"/>
<path d="M11.0938 7.91213C11.1587 7.84752 11.2449 7.8118 11.3344 7.81251C11.4238 7.81322 11.5095 7.8503 11.5734 7.91593C11.6373 7.98156 11.6743 8.07061 11.6766 8.16428C11.679 8.25795 11.6465 8.34892 11.5861 8.41799L9.7506 10.822C9.71903 10.8576 9.68094 10.8862 9.6386 10.906C9.59625 10.9259 9.55052 10.9365 9.50414 10.9374C9.45776 10.9383 9.41169 10.9294 9.36867 10.9113C9.32565 10.8931 9.28657 10.866 9.25378 10.8317L8.03657 9.55689C8.00267 9.52381 7.97548 9.48392 7.95663 9.4396C7.93777 9.39528 7.92763 9.34743 7.92681 9.29891C7.92599 9.2504 7.93452 9.20221 7.95187 9.15722C7.96922 9.11223 7.99505 9.07135 8.02781 9.03704C8.06057 9.00273 8.0996 8.97568 8.14256 8.95751C8.18552 8.93934 8.23153 8.93041 8.27786 8.93127C8.32418 8.93213 8.36987 8.94275 8.41219 8.96249C8.45451 8.98224 8.4926 9.01072 8.52419 9.04622L9.48747 10.0546L11.0851 7.92273L11.0938 7.91213Z" fill="#222222"/>
</svg>
